<svg width="32" height="32" viewBox="0 0 32 32" fill="none" xmlns="http://www.w3.org/2000/svg">
<g clip-path="url(#clip0_4_517)">
<path d="M16 3.99999C16.176 3.99999 16.3507 3.99999 16.524 3.99999C14.8112 5.5916 13.7102 7.73312 13.4124 10.0523C13.1147 12.3715 13.639 14.7216 14.8943 16.6943C16.1497 18.667 18.0565 20.1374 20.2835 20.85C22.5105 21.5625 24.9168 21.4722 27.084 20.5947C26.2503 22.6006 24.8878 24.3427 23.1416 25.635C21.3955 26.9273 19.3313 27.7214 17.1692 27.9325C15.0072 28.1436 12.8284 27.7639 10.8652 26.8339C8.90206 25.9038 7.22818 24.4583 6.02215 22.6515C4.81612 20.8447 4.12317 18.7444 4.01721 16.5746C3.91126 14.4049 4.39628 12.2471 5.42053 10.3313C6.44478 8.41564 7.96985 6.81389 9.83305 5.69697C11.6963 4.58005 13.8277 3.98985 16 3.98933V3.99999Z" stroke="#151515" stroke-width="2.66667" stroke-linecap="round" stroke-linejoin="round"/>
</g>
<defs>
<clipPath id="clip0_4_517">
<rect width="32" height="32" fill="white"/>
</clipPath>
</defs>
</svg>
