<svg width="32" height="32" viewBox="0 0 32 32" fill="none" xmlns="http://www.w3.org/2000/svg">
<g clip-path="url(#clip0_4_451)">
<path d="M26.9428 5.05733C28.4304 6.54509 29.2661 8.5628 29.2661 10.6667C29.2661 12.7705 28.4304 14.7882 26.9428 16.276L16.2762 26.9427C14.7826 28.4018 12.774 29.2134 10.686 29.2012C8.59795 29.189 6.59892 28.3542 5.12245 26.8777C3.64598 25.4012 2.81112 23.4022 2.79896 21.3142C2.7868 19.2262 3.59832 17.2176 5.0575 15.724L15.7242 5.05733C17.2119 3.56977 19.2296 2.73409 21.3335 2.73409C23.4374 2.73409 25.4551 3.56977 26.9428 5.05733ZM17.6095 6.94266L11.8842 12.6667L19.3322 20.1147L25.0575 14.392C25.5523 13.9042 25.9457 13.3234 26.2151 12.6829C26.4844 12.0424 26.6243 11.355 26.6268 10.6602C26.6293 9.96537 26.4943 9.27695 26.2296 8.63456C25.9648 7.99216 25.5756 7.4085 25.0843 6.9172C24.593 6.4259 24.0093 6.03667 23.3669 5.77193C22.7245 5.50719 22.0361 5.37217 21.3413 5.37466C20.6465 5.37715 19.9591 5.5171 19.3186 5.78644C18.6781 6.05578 18.0973 6.44919 17.6095 6.944" fill="black"/>
</g>
<defs>
<clipPath id="clip0_4_451">
<rect width="32" height="32" fill="white"/>
</clipPath>
</defs>
</svg>
